Patient4_TMGait_0pt5_02_left_24_EMG.mot
version=1
nRows=33
nColumns=33
inDegrees=no
endheader
time	1LAddLong	2LGlutMax	3LGlutMed	4LIliopsoas	5LSemiMemb	6LBicFemLong	7LRecFem	8LVastMed	9LVastLat	10LGasMed	11LTibAnt	12lTibPost	13LPeroneusLong	14LSol	15LExtDigLong	16LFlexDigLong	17RAddLong	18RGlutMax	19RGlutMed	20RIliopsoas	21RSemiMemb	22RBicFemLong	23RRecFem	24RVastMed	25RVastLat	26RGasMed	27RTibAnt	28RTibPost	29RPeroneusLong	30RSol	31RExtDigLong	32RFlexDigLong
31.485	-0.001678	0.003815	-0.63187	0.012665	0.065918	0.086517	-0.046387	0.005035	-0.02655	-0.21515	0.028687	0.002899	-0.027924	-0.17868	-0.000763	-0.005798	0.14725	0.1001	0.2446	0.14175	0.48813	-0.042572	0.20309	-0.001373	-0.041656	-0.010376	-0.043488	0.002899	0.016479	0.011292	-0.005798	-0.001526
31.486	0.014343	0.032196	-0.61371	-0.003815	0.037689	0.11993	-0.058289	-0.000458	-0.030823	0.010071	0.010529	0.01358	0.018463	-0.22949	0.002594	-0.005798	0.13412	0.093689	0.15335	0.21622	0.46188	-0.098114	0.24384	-0.053864	-0.061798	-0.004578	-0.073395	0.005646	0.041656	-0.020447	-0.00473	-0.005493
31.487	0.010681	0.054779	-0.53451	0.019836	0.036621	0.094757	-0.085907	-0.00351	-0.022278	0.059662	0.01709	0.009308	0.057831	-0.19852	0.014191	-0.009766	0.080566	0.097656	0.18463	0.088348	0.089417	-0.052185	0.12146	-0.11002	-0.02533	-0.000916	-0.036774	0.005188	0.014954	-0.03952	-0.009308	-0.011597
31.488	0.013428	0.088348	-0.49011	-0.006104	0.005035	0.032959	-0.09079	0.002441	-0.017395	-0.025177	0.00473	0.000763	0.059814	-0.06897	-0.009003	-0.009918	0.013123	0.031738	0.25146	-0.004883	0.16327	0.056	-0.020447	0.010071	-0.01358	-0.006866	0.11978	0.004578	0.005035	-0.03418	-0.004272	-0.010986
31.489	0.019226	0.094452	-0.45044	0.016174	0.00351	-0.019073	-0.10239	0.002441	-0.02182	0.021362	0.002136	0.005188	0.041962	0.11444	0.015259	-0.074158	-0.048218	-0.043945	0.10376	-0.041809	0.18662	0.14038	0.041962	0.13596	-0.054932	-0.001526	0.22369	0.002289	0.040588	-0.042114	-0.000916	-0.00473
31.49	0.015869	0.12634	-0.39291	0.010376	-0.023651	-0.038147	-0.10452	0.00061	-0.038605	0.12436	0.00824	0.009766	0.025482	0.19394	0.018921	0.057526	-0.062103	-0.015869	0.28564	-0.044708	-0.027313	0.14053	-0.05188	0.18631	-0.11231	0.000153	0.23193	0.004272	0.074615	-0.044098	-0.002747	-0.013275
31.491	0.004883	0.13199	-0.34698	0.001984	-0.063934	0.041046	-0.1207	0.002136	-0.006714	0.25497	-0.012207	0.019531	0.028381	0.19547	0.001526	0.30975	-0.085754	0.009613	0.46478	0.11429	-0.2533	0.23346	-0.018921	0.20126	-0.20065	-0.007324	0.30197	0.00412	0.088196	-0.010223	-0.003815	-0.011139
31.492	0.011597	0.14374	-0.31433	0.019379	-0.087585	0.10315	-0.14145	0.003662	-0.01297	0.53635	-0.002136	0.021973	-0.014343	0.25314	0.017853	-1.4366	-0.094452	0.020599	0.15823	0.16144	-0.1355	0.23743	0.051117	0.15167	0.024872	-0.010834	0.24277	0.005035	0.066528	-0.010223	-0.00473	-0.017395
31.493	0.001984	0.12894	-0.26596	0.007477	-0.024261	0.066681	-0.14542	0.007782	-0.015259	0.35934	0.013885	-0.001068	-0.075226	0.15533	0.010376	0.35355	-0.13306	-0.026245	0.066071	-0.025482	0.26215	0.24292	-0.16007	0.13321	0.45898	-0.00885	0.062714	-0.002594	0.072632	-0.009918	-0.001984	-0.00351
31.494	0.015259	0.16419	-0.18631	0.010529	0.061493	0.066681	-0.16922	0.005646	-0.01297	-0.13458	0.007172	0.012054	-0.012512	-0.041809	-0.000916	1.024	-0.15015	0.056763	0.028229	-0.16846	0.46646	0.20264	-0.28366	0.13443	0.5014	0.000458	-0.0383	0.004425	0.039215	-0.021973	-0.003204	-0.005493
31.495	0.019531	0.20706	-0.18219	0.007477	0.090942	0.029297	-0.18478	0.009613	-0.024261	-0.26459	0.020294	-0.008087	0.042419	-0.026855	-0.041351	-0.50171	-0.083008	0.039368	0.026703	-0.16159	0.31281	0.098114	-0.27176	-0.021515	0.36636	-0.003967	-0.027466	-0.000153	-0.15854	-0.03067	-0.005341	0.001984
31.496	0.015717	0.19012	-0.15167	0.019531	0.016785	-0.053253	-0.19577	0.002136	-0.045929	-0.10193	0.006714	0	0.058136	-0.049744	-0.042419	0.30151	-0.061646	-0.054169	-0.15427	-0.15869	0.15595	0.11643	-0.19104	-0.10086	0.2385	0.002594	-0.068512	0.001984	0.002594	-0.01297	-0.002899	0.001984
31.497	0.022125	0.17548	-0.086365	0.002594	-0.06012	-0.12161	-0.20187	-0.000153	-0.02243	0.016174	-0.003662	0.000458	0.031738	-0.15137	-0.025024	0.56671	-0.04303	-0.041351	-0.39597	-0.007629	0.07309	0.17838	-0.17319	-0.06546	0.33478	-0.001068	-0.004425	-0.002747	0.13229	-0.042267	-0.003967	0.007172
31.498	0.028992	0.20828	-0.059357	0.008698	-0.032349	-0.12497	-0.2243	0.001221	-0.014496	0.037231	-0.004578	0.023956	-0.016937	-0.098114	-0.05249	0.4422	-0.039673	-0.088959	-0.55618	0.14114	0.03479	0.23377	-0.52002	0.50812	0.75668	-0.00824	0.039673	-0.001526	0.023346	-0.10254	-0.002441	0.003357
31.499	0.028839	0.19714	-0.030365	0.005951	0.028534	-0.11643	-0.21606	0.001526	-0.043182	-0.1564	0.003204	0.039825	-0.059967	0.23956	-0.053711	0.16571	-0.036163	-0.1535	-0.27908	0.19562	0.039215	0.23987	-0.91126	0.58365	0.98404	-0.009155	0.001526	0.00061	-0.012817	-0.10635	0.00061	-0.003204
31.5	0.016479	0.20157	-0.022583	0.010986	0.026398	-0.10208	-0.22461	0.002594	-0.046082	-0.047607	0.007935	0.013123	-0.051575	0.36072	0.014954	-0.057526	-0.032959	-0.23025	0.35324	0.037231	0.006866	0.18951	-0.9227	0.4657	0.61829	-0.00061	-0.099487	-0.002289	0.06134	-0.08316	-0.002441	0.001831
31.501	0.028381	0.18219	0.018616	0.010529	0.048981	-0.071716	-0.23666	-0.002289	-0.037689	-0.084839	0.013733	0.20584	0.020752	0.17136	0.037842	-0.24551	0.001526	-0.29907	0.57724	-0.025787	0.014038	0.13886	-0.4364	0.35355	-0.071564	0.000916	-0.077362	-0.002899	0.10666	-0.030518	-0.00412	-0.006714
31.502	0.027924	0.17166	0.078888	0.006104	0.040894	0.021667	-0.21469	-0.009308	-0.024719	-0.17227	0.004272	-0.084991	0.035248	0.063782	0.011597	-0.048065	0.025787	-0.45593	0.51102	0.10117	-0.016327	0.085297	-0.061951	0.074463	-0.26794	-0.00473	-0.12512	0.000153	0.080109	0.01358	-0.000153	-0.004272
31.503	0.02182	0.13214	0.16678	0.012817	0.034637	0.05127	-0.23499	-0.00351	-0.005798	-0.020142	0.006561	-0.13229	-0.025482	-0.1535	0.011902	0.14542	0.036316	-0.42801	0.54336	0.091553	-0.054932	0.028839	0.042419	-0.26062	-0.32028	-0.00946	-0.085907	-0.004578	0.053101	0.017853	-0.000916	-0.007019
31.504	0.024567	0.13901	0.15549	0.01297	0.01709	0.07309	-0.2243	0.005646	-0.023041	0.31189	0.015259	-0.015717	0.054016	-0.22903	0.048676	-0.17334	0.056	-0.35782	0.23911	0.056	-0.092773	0.03067	0.041199	-0.57495	-0.4805	-0.001678	-0.020294	-0.00351	0.041351	-0.000153	-0.000916	-0.002899
31.505	0.019226	0.16663	0.19775	0.021515	-0.011292	0.059357	-0.21515	0.00351	-0.032959	0.45685	0.010681	-0.027466	0.020752	-0.22415	0.00824	-0.087585	0.032501	-0.21759	0.11795	-0.007477	-0.11765	0.021973	0.00412	-0.53253	-0.69763	0.000305	-0.014648	0.000458	0.066376	-0.041351	-0.00412	-0.013885
31.506	0.013885	0.16235	0.22354	0.023193	-0.034637	0.031433	-0.22675	0.001221	-0.042572	0.27237	0.00946	-0.018158	-0.039978	-0.074615	-0.019226	-0.069427	-0.025024	-0.12833	0.028229	-0.089417	-0.14618	0.062866	-0.029449	-0.5925	-0.69305	-0.00061	-0.054626	-0.000763	0.067749	-0.068054	-0.002899	-0.009918
31.507	0.012054	0.19547	0.24017	0.024109	-0.038147	0.034637	-0.21729	0.001678	-0.041962	0.25787	0.005035	0.008392	-0.001068	0.16739	-0.024109	-0.24567	-0.018005	-0.085602	0.031128	-0.112	-0.20844	0.056305	0.00061	-0.58105	-0.7106	-0.000153	-0.054779	-0.004578	0.041962	-0.083313	-0.000305	-0.015259
31.508	0.019531	0.20645	0.29877	0.019379	-0.019379	0.049744	-0.20584	0.005798	-0.056152	0.17929	0.001373	0.31784	0.00824	0.41153	-0.035095	-0.40482	0.001068	-0.063324	0.15518	0.01297	-0.26947	0.085449	-0.074158	-0.39948	-0.55618	-0.005341	-0.035706	-0.003815	0.006104	-0.058441	-0.003357	-0.008698
31.509	0.004425	0.20767	0.30334	0.014343	0.029297	0.060272	-0.21149	0.006104	-0.054779	0.21637	0.00351	-0.012665	0.058594	0.53482	-0.018616	-0.22614	0.030823	-0.033417	0.19699	0.038452	-0.22125	0.05661	-0.18509	-0.26901	-0.47669	-0.006561	0.039368	0	0.010071	-0.026855	-0.005341	-0.009918
31.51	0.011597	0.19882	0.3064	0.005646	0.018311	0.020905	-0.23895	0.00061	-0.029755	0.47485	0.008698	-0.21088	0.08194	0.3566	0.013275	0.47562	0.008087	-0.059052	0.15778	0.039673	-0.10178	0.046997	-0.26688	0.027161	-0.34958	-0.009003	0.15411	-0.005646	0.009155	-0.03006	-0.005951	-0.010071
31.511	0.020294	0.224	0.32105	0.001984	-0.027008	0.005646	-0.23773	0.001068	-0.031738	0.010223	0.010986	0.007324	0.005951	-0.032196	0.034943	0.44083	0.014038	-0.16266	-0.054169	0.021973	0.063934	0.019531	-0.13306	0.016174	-0.35233	-0.010376	0.27771	0.006866	-0.007629	-0.009003	0.000153	-0.016022
31.512	0.020752	0.2214	0.39017	0	-0.069275	-0.002899	-0.22461	0.002136	-0.028076	-0.16129	0.018616	-0.089722	-0.07309	-0.67734	0.020905	-0.002899	0.020142	-0.26962	-0.159	-0.034637	0.23712	-0.027618	0.043488	0.033722	-0.29877	-0.014954	0.4129	-0.006714	-0.051422	0.004425	-0.001221	-0.010223
31.513	0.011139	0.20599	0.41	0.000458	-0.048523	-0.022888	-0.242	0.001526	-0.021973	0	0.010529	0.007477	-0.11444	-1.1623	-0.007629	-0.34119	0.019989	-0.22415	-0.26688	-0.037689	0.15701	-0.023041	0.019836	0.18631	-0.087433	-0.011292	0.466	-0.001373	-0.11765	-0.04715	-0.004578	-0.002441
31.514	0.026093	0.20477	0.41672	0.001831	0.019836	-0.061493	-0.2652	-0.005951	-0.007935	-0.08316	0.013123	0.032959	-0.15686	-0.7341	-0.00824	-0.46402	0.006256	-0.16419	-0.392	-0.12146	0.060883	-0.004578	0.005341	0.19516	-0.057526	-0.005951	0.1564	-0.002747	-0.12985	-0.10742	-0.002594	-0.008545
31.515	0.017548	0.18723	0.41977	-0.005798	0.0354	-0.1091	-0.24216	-0.003662	-0.033264	-0.18677	0.023499	0.21729	-0.18463	0.10574	-0.024872	0.24948	0.012512	-0.12116	-0.47211	-0.08606	0.034027	0.018616	0.089111	0.029907	0.002441	-0.008545	-0.046997	0.005951	-0.053864	-0.14938	-0.004272	-0.010681
31.516	0.009155	0.13382	0.41702	0.010529	0.020142	-0.009613	-0.20706	0.006409	-0.070038	-0.13031	0.014954	0.26611	-0.093689	0.50232	-0.006714	0.29282	0.040894	-0.055847	-0.45975	0.007782	0.059967	0.015564	-0.037689	-0.073242	-0.018311	-0.005035	-0.036621	-0.003204	0.029602	-0.242	-0.004578	-0.006866
31.517	0.022888	0.14648	0.41794	0.007629	-0.001373	0.039368	-0.22369	0.004578	-0.045776	-0.11108	0.009155	-0.031586	0.079651	-0.00885	0.002747	0.017242	0.067291	-0.003662	-0.49972	0.062561	0.0737	0.005341	-0.32928	-0.13229	0.027008	0.005035	-0.13596	-0.00061	0.15839	-0.31784	-0.00473	-0.003052
